{"title":"Aakhir Kyon 1985 2CD DvDrip MKV ~ Drama | Family ~ [RdY] ","uid":6486839,"size":1465061375,"categoryP":"video","categoryS":"movies","magnet":"?xt=urn:btih:009ae334fa975a08c85e5dcc70fe61b9fe42beb7&amp;dn=Aakhir+Kyon+1985+2CD+DvDrip+MKV+%7E+Drama+%7C+Family+%7E+%5BRdY%5D+&amp;tr=udp%3A%2F%2Ftracker.openbittorrent.com%3A80&amp;tr=udp%3A%2F%2Fopen.demonii.com%3A1337&amp;tr=udp%3A%2F%2Ftracker.coppersurfer.tk%3A6969&amp;tr=udp%3A%2F%2Fexodus.desync.com%3A6969","seeders":1,"leechers":3,"uploader":"ilyas2000pk","files":-1,"time":1308739961,"description":"Complete name : Aakhir Kyon 1985 2CD DvDrip MKV ~ Drama | Family ~ [RdY] \nFormat : Matroska\nFile size : 1.36 GiB\nDuration : 2h 32mn\nOverall bit rate : 1 285 Kbps\n\n\nVideo\nID : 1\nFormat : AVC\nFormat/Info : Advanced Video Codec\nFormat profile : &lt;a class=&quot;__cf_email__&quot; href=&quot;/cdn-cgi/l/email-protection&quot; data-cfemail=&quot;672f0e000f272b534957&quot;&gt;[email&amp;#160;protected]&lt;/a&gt;&lt;script cf-hash='f9e31' type=&quot;text/javascript&quot;&gt;\n/* &lt;![CDATA[ */!function(){try{var t=&quot;currentScript&quot;in document?document.currentScript:function(){for(var t=document.getElementsByTagName(&quot;script&quot;),e=t.length;e--;)if(t[e].getAttribute(&quot;cf-hash&quot;))return t[e]}();if(t&amp;&amp;t.previousSibling){var e,r,n,i,c=t.previousSibling,a=c.getAttribute(&quot;data-cfemail&quot;);if(a){for(e=&quot;&quot;,r=parseInt(a.substr(0,2),16),n=2;a.length-n;n+=2)i=parseInt(a.substr(n,2),16)^r,e+=String.fromCharCode(i);e=document.createTextNode(e),c.parentNode.replaceChild(e,c)}}}catch(u){}}();/* ]]&gt; */&lt;/script&gt;\nFormat settings, CABAC : Yes\nFormat settings, ReFrames : 3 frames\nMuxing mode : Container profile=&lt;a class=&quot;__cf_email__&quot; href=&quot;/cdn-cgi/l/email-protection&quot; data-cfemail=&quot;e9bc878287869e87a9ddc7d9&quot;&gt;[email&amp;#160;protected]&lt;/a&gt;&lt;script cf-hash='f9e31' type=&quot;text/javascript&quot;&gt;\n/* &lt;![CDATA[ */!function(){try{var t=&quot;currentScript&quot;in document?document.currentScript:function(){for(var t=document.getElementsByTagName(&quot;script&quot;),e=t.length;e--;)if(t[e].getAttribute(&quot;cf-hash&quot;))return t[e]}();if(t&amp;&amp;t.previousSibling){var e,r,n,i,c=t.previousSibling,a=c.getAttribute(&quot;data-cfemail&quot;);if(a){for(e=&quot;&quot;,r=parseInt(a.substr(0,2),16),n=2;a.length-n;n+=2)i=parseInt(a.substr(n,2),16)^r,e+=String.fromCharCode(i);e=document.createTextNode(e),c.parentNode.replaceChild(e,c)}}}catch(u){}}();/* ]]&gt; */&lt;/script&gt;\nCodec ID : V_MPEG4/ISO/AVC\nDuration : 2h 32mn\nBit rate mode : Variable\nBit rate : 1 156 Kbps\nMaximum bit rate : 25.0 Mbps\nWidth : 512 pixels\nHeight : 384 pixels\nDisplay aspect ratio : 4:3\nFrame rate : 29.970 fps\nColor space : YUV\nChroma subsampling : 4.2.0\nBit depth : 8 bits\nScan type : Progressive\nBits/(Pixel*Frame) : 0.196\nStream size : 1.20 GiB (88%)\nWriting library : x264 core 67 r1169M ab85c9b\n\nAudio\nID : 2\nFormat : MPEG Audio\nFormat version : Version 1\nFormat profile : Layer 3\nMode : Joint stereo\nMode extension : MS Stereo\nCodec ID : A_MPEG/L3\nCodec ID/Hint : MP3\nDuration : 2h 32mn\nBit rate mode : Constant\nBit rate : 128 Kbps\nChannel(s) : 2 channels\nSampling rate : 48.0 KHz\nVideo delay : 500ms\nStream size : 139 MiB (10%)\nWriting library : LAME3.96.1\n\n\nColor\nC\n\nRelease Date\n1985\n\nGenre\nFamily Drama\n\nProducer\nJ Om Prakash\n\nDirector\nJ Om Prakash\n\nStar Cast\nRajesh Khanna...... Alok Nath\nSmita Patil...... Mrs. Kabir Suri/Nisha Sharma/Asha Shri\nRakesh Roshan...... Kabir Suri\nTina Munim...... Indu Sharma\nAsrani...... Radha Raman Goswami\nSujit Kumar...... Mr. S. Kumar\nShobha Khote\nBaby Guddo...... Nisha's daughter\nRenu Joshi\nIndu Shivraj...... Indu's Father\n\nCassettes and CD's on\nT-Series\n\nPublicity Designs\nStudio Link","torrent":{"xt":"urn:btih:009ae334fa975a08c85e5dcc70fe61b9fe42beb7","amp;dn":"Aakhir+Kyon+1985+2CD+DvDrip+MKV+%7E+Drama+%7C+Family+%7E+%5BRdY%5D+","amp;tr":["udp%3A%2F%2Ftracker.openbittorrent.com%3A80","udp%3A%2F%2Fopen.demonii.com%3A1337","udp%3A%2F%2Ftracker.coppersurfer.tk%3A6969","udp%3A%2F%2Fexodus.desync.com%3A6969"],"infoHash":"009ae334fa975a08c85e5dcc70fe61b9fe42beb7","infoHashBuffer":{"type":"Buffer","data":[0,154,227,52,250,151,90,8,200,94,93,204,112,254,97,185,254,66,190,183]},"announce":[],"urlList":[]}}